<svg xmlns="http://www.w3.org/2000/svg" xmlns:xlink="http://www.w3.org/1999/xlink" width="512" zoomAndPan="magnify" viewBox="0 0 384 383.999986" height="512" preserveAspectRatio="xMidYMid meet" version="1.2"><defs><clipPath id="f910b35ca6"><path d="M 219.261719 0 L 384 0 L 384 165 L 219.261719 165 Z M 219.261719 0 "/></clipPath></defs><g id="138f18dc6b"><path style=" stroke:none;fill-rule:nonzero;fill:#ff8904;fill-opacity:1;" d="M 192 24 C 202.648438 24 212.476562 29.625 217.875 38.851562 L 379.875 314.851562 C 385.351562 324.148438 385.351562 335.625 380.023438 344.925781 C 374.699219 354.226562 364.726562 360 354 360 L 30 360 C 19.273438 360 9.300781 354.226562 3.976562 344.925781 C -1.351562 335.625 -1.273438 324.074219 4.125 314.851562 L 166.125 38.851562 C 171.523438 29.625 181.351562 24 192 24 Z M 192 120 C 182.023438 120 174 128.023438 174 138 L 174 222 C 174 231.976562 182.023438 240 192 240 C 201.976562 240 210 231.976562 210 222 L 210 138 C 210 128.023438 201.976562 120 192 120 Z M 216 288 C 216 287.214844 215.960938 286.429688 215.882812 285.648438 C 215.808594 284.867188 215.691406 284.089844 215.539062 283.316406 C 215.386719 282.546875 215.195312 281.785156 214.964844 281.03125 C 214.738281 280.28125 214.472656 279.542969 214.171875 278.816406 C 213.871094 278.089844 213.535156 277.378906 213.167969 276.6875 C 212.796875 275.992188 212.390625 275.320312 211.957031 274.667969 C 211.519531 274.011719 211.050781 273.382812 210.550781 272.773438 C 210.054688 272.167969 209.527344 271.585938 208.96875 271.03125 C 208.414062 270.472656 207.832031 269.945312 207.226562 269.449219 C 206.617188 268.949219 205.988281 268.480469 205.332031 268.042969 C 204.679688 267.609375 204.007812 267.203125 203.3125 266.832031 C 202.621094 266.464844 201.910156 266.128906 201.183594 265.828125 C 200.457031 265.527344 199.71875 265.261719 198.96875 265.035156 C 198.214844 264.804688 197.453125 264.613281 196.683594 264.460938 C 195.910156 264.308594 195.132812 264.191406 194.351562 264.117188 C 193.570312 264.039062 192.785156 264 192 264 C 191.214844 264 190.429688 264.039062 189.648438 264.117188 C 188.867188 264.191406 188.089844 264.308594 187.316406 264.460938 C 186.546875 264.613281 185.785156 264.804688 185.03125 265.035156 C 184.28125 265.261719 183.542969 265.527344 182.816406 265.828125 C 182.089844 266.128906 181.378906 266.464844 180.6875 266.832031 C 179.992188 267.203125 179.320312 267.609375 178.667969 268.042969 C 178.011719 268.480469 177.382812 268.949219 176.773438 269.449219 C 176.167969 269.945312 175.585938 270.472656 175.03125 271.03125 C 174.472656 271.585938 173.945312 272.167969 173.449219 272.773438 C 172.949219 273.382812 172.480469 274.011719 172.042969 274.667969 C 171.609375 275.320312 171.203125 275.992188 170.832031 276.6875 C 170.464844 277.378906 170.128906 278.089844 169.828125 278.816406 C 169.527344 279.542969 169.261719 280.28125 169.035156 281.03125 C 168.804688 281.785156 168.613281 282.546875 168.460938 283.316406 C 168.308594 284.089844 168.191406 284.867188 168.117188 285.648438 C 168.039062 286.429688 168 287.214844 168 288 C 168 288.785156 168.039062 289.570312 168.117188 290.351562 C 168.191406 291.132812 168.308594 291.910156 168.460938 292.683594 C 168.613281 293.453125 168.804688 294.214844 169.035156 294.96875 C 169.261719 295.71875 169.527344 296.457031 169.828125 297.183594 C 170.128906 297.910156 170.464844 298.621094 170.832031 299.3125 C 171.203125 300.007812 171.609375 300.679688 172.042969 301.332031 C 172.480469 301.988281 172.949219 302.617188 173.449219 303.226562 C 173.945312 303.832031 174.472656 304.414062 175.03125 304.96875 C 175.585938 305.527344 176.167969 306.054688 176.773438 306.550781 C 177.382812 307.050781 178.011719 307.519531 178.667969 307.957031 C 179.320312 308.390625 179.992188 308.796875 180.6875 309.167969 C 181.378906 309.535156 182.089844 309.871094 182.816406 310.171875 C 183.542969 310.472656 184.28125 310.738281 185.03125 310.964844 C 185.785156 311.195312 186.546875 311.386719 187.316406 311.539062 C 188.089844 311.691406 188.867188 311.808594 189.648438 311.882812 C 190.429688 311.960938 191.214844 312 192 312 C 192.785156 312 193.570312 311.960938 194.351562 311.882812 C 195.132812 311.808594 195.910156 311.691406 196.683594 311.539062 C 197.453125 311.386719 198.214844 311.195312 198.96875 310.964844 C 199.71875 310.738281 200.457031 310.472656 201.183594 310.171875 C 201.910156 309.871094 202.621094 309.535156 203.3125 309.167969 C 204.007812 308.796875 204.679688 308.390625 205.332031 307.957031 C 205.988281 307.519531 206.617188 307.050781 207.226562 306.550781 C 207.832031 306.054688 208.414062 305.527344 208.96875 304.96875 C 209.527344 304.414062 210.054688 303.832031 210.550781 303.226562 C 211.050781 302.617188 211.519531 301.988281 211.957031 301.332031 C 212.390625 300.679688 212.796875 300.007812 213.167969 299.3125 C 213.535156 298.621094 213.871094 297.910156 214.171875 297.183594 C 214.472656 296.457031 214.738281 295.71875 214.964844 294.96875 C 215.195312 294.214844 215.386719 293.453125 215.539062 292.683594 C 215.691406 291.910156 215.808594 291.132812 215.882812 290.351562 C 215.960938 289.570312 216 288.785156 216 288 Z M 216 288 "/><g clip-rule="nonzero" clip-path="url(#f910b35ca6)"><path style=" stroke:none;fill-rule:nonzero;fill:#15803d;fill-opacity:1;" d="M 301.761719 165 C 303.109375 165 304.460938 164.96875 305.808594 164.902344 C 307.15625 164.835938 308.503906 164.734375 309.847656 164.601562 C 311.191406 164.46875 312.53125 164.304688 313.867188 164.105469 C 315.199219 163.910156 316.53125 163.679688 317.855469 163.414062 C 319.179688 163.152344 320.496094 162.855469 321.804688 162.527344 C 323.117188 162.199219 324.417969 161.839844 325.707031 161.449219 C 327 161.054688 328.28125 160.632812 329.554688 160.175781 C 330.824219 159.722656 332.085938 159.238281 333.332031 158.71875 C 334.578125 158.203125 335.8125 157.65625 337.035156 157.078125 C 338.253906 156.5 339.460938 155.894531 340.648438 155.257812 C 341.839844 154.621094 343.015625 153.957031 344.171875 153.261719 C 345.332031 152.570312 346.472656 151.847656 347.59375 151.097656 C 348.71875 150.347656 349.820312 149.570312 350.90625 148.765625 C 351.988281 147.960938 353.054688 147.128906 354.097656 146.273438 C 355.140625 145.417969 356.164062 144.535156 357.164062 143.628906 C 358.164062 142.722656 359.140625 141.789062 360.097656 140.835938 C 361.050781 139.882812 361.980469 138.902344 362.886719 137.902344 C 363.796875 136.902344 364.675781 135.882812 365.535156 134.835938 C 366.390625 133.792969 367.21875 132.730469 368.023438 131.644531 C 368.828125 130.5625 369.605469 129.457031 370.355469 128.335938 C 371.105469 127.210938 371.828125 126.070312 372.523438 124.914062 C 373.214844 123.753906 373.882812 122.582031 374.519531 121.390625 C 375.15625 120.199219 375.761719 118.992188 376.339844 117.773438 C 376.917969 116.554688 377.464844 115.320312 377.980469 114.070312 C 378.496094 112.824219 378.984375 111.566406 379.4375 110.292969 C 379.890625 109.023438 380.316406 107.742188 380.707031 106.449219 C 381.097656 105.15625 381.460938 103.855469 381.789062 102.546875 C 382.117188 101.234375 382.410156 99.917969 382.675781 98.59375 C 382.9375 97.269531 383.167969 95.941406 383.367188 94.605469 C 383.566406 93.269531 383.730469 91.929688 383.863281 90.585938 C 383.996094 89.242188 384.09375 87.898438 384.160156 86.546875 C 384.226562 85.199219 384.261719 83.851562 384.261719 82.5 C 384.261719 81.148438 384.226562 79.800781 384.160156 78.453125 C 384.09375 77.101562 383.996094 75.757812 383.863281 74.414062 C 383.730469 73.070312 383.566406 71.730469 383.367188 70.394531 C 383.167969 69.058594 382.9375 67.730469 382.675781 66.40625 C 382.410156 65.082031 382.117188 63.765625 381.789062 62.453125 C 381.460938 61.144531 381.097656 59.84375 380.707031 58.550781 C 380.316406 57.257812 379.890625 55.976562 379.4375 54.707031 C 378.984375 53.433594 378.496094 52.175781 377.980469 50.929688 C 377.464844 49.679688 376.917969 48.445312 376.339844 47.226562 C 375.761719 46.007812 375.15625 44.800781 374.519531 43.609375 C 373.882812 42.417969 373.214844 41.246094 372.523438 40.085938 C 371.828125 38.929688 371.105469 37.789062 370.355469 36.664062 C 369.605469 35.542969 368.828125 34.4375 368.023438 33.355469 C 367.21875 32.269531 366.390625 31.207031 365.535156 30.164062 C 364.675781 29.117188 363.796875 28.097656 362.886719 27.097656 C 361.980469 26.097656 361.050781 25.117188 360.097656 24.164062 C 359.140625 23.207031 358.164062 22.277344 357.164062 21.371094 C 356.164062 20.464844 355.140625 19.582031 354.097656 18.726562 C 353.054688 17.871094 351.988281 17.039062 350.90625 16.234375 C 349.820312 15.429688 348.71875 14.652344 347.59375 13.902344 C 346.472656 13.152344 345.332031 12.429688 344.171875 11.738281 C 343.015625 11.042969 341.839844 10.378906 340.648438 9.742188 C 339.460938 9.105469 338.253906 8.5 337.035156 7.921875 C 335.8125 7.34375 334.578125 6.796875 333.332031 6.28125 C 332.085938 5.761719 330.824219 5.277344 329.554688 4.824219 C 328.28125 4.367188 327 3.945312 325.707031 3.550781 C 324.417969 3.160156 323.117188 2.800781 321.804688 2.472656 C 320.496094 2.144531 319.179688 1.847656 317.855469 1.585938 C 316.53125 1.320312 315.199219 1.089844 313.867188 0.894531 C 312.53125 0.695312 311.191406 0.53125 309.847656 0.398438 C 308.503906 0.265625 307.15625 0.164062 305.808594 0.0976562 C 304.460938 0.03125 303.109375 0 301.761719 0 C 300.410156 0 299.058594 0.03125 297.710938 0.0976562 C 296.363281 0.164062 295.015625 0.265625 293.671875 0.398438 C 292.328125 0.53125 290.992188 0.695312 289.65625 0.894531 C 288.320312 1.089844 286.988281 1.320312 285.664062 1.585938 C 284.339844 1.847656 283.023438 2.144531 281.714844 2.472656 C 280.40625 2.800781 279.105469 3.160156 277.8125 3.550781 C 276.519531 3.945312 275.238281 4.367188 273.964844 4.824219 C 272.695312 5.277344 271.4375 5.761719 270.1875 6.28125 C 268.941406 6.796875 267.707031 7.34375 266.488281 7.921875 C 265.265625 8.5 264.0625 9.105469 262.871094 9.742188 C 261.679688 10.378906 260.503906 11.042969 259.347656 11.738281 C 258.1875 12.429688 257.046875 13.152344 255.925781 13.902344 C 254.804688 14.652344 253.699219 15.429688 252.613281 16.234375 C 251.53125 17.039062 250.464844 17.871094 249.421875 18.726562 C 248.378906 19.582031 247.355469 20.464844 246.355469 21.371094 C 245.355469 22.277344 244.378906 23.207031 243.421875 24.164062 C 242.46875 25.117188 241.539062 26.097656 240.632812 27.097656 C 239.726562 28.097656 238.84375 29.117188 237.988281 30.164062 C 237.128906 31.207031 236.300781 32.269531 235.496094 33.355469 C 234.691406 34.4375 233.914062 35.542969 233.164062 36.664062 C 232.414062 37.789062 231.691406 38.929688 230.996094 40.085938 C 230.304688 41.246094 229.636719 42.417969 229 43.609375 C 228.363281 44.800781 227.757812 46.007812 227.179688 47.226562 C 226.605469 48.445312 226.058594 49.679688 225.539062 50.929688 C 225.023438 52.175781 224.539062 53.433594 224.082031 54.707031 C 223.628906 55.976562 223.203125 57.257812 222.8125 58.550781 C 222.421875 59.84375 222.058594 61.144531 221.734375 62.453125 C 221.40625 63.765625 221.109375 65.082031 220.84375 66.40625 C 220.582031 67.730469 220.351562 69.058594 220.152344 70.394531 C 219.953125 71.730469 219.789062 73.070312 219.65625 74.414062 C 219.523438 75.757812 219.425781 77.101562 219.359375 78.453125 C 219.292969 79.800781 219.261719 81.148438 219.261719 82.5 C 219.261719 83.851562 219.292969 85.199219 219.359375 86.546875 C 219.425781 87.898438 219.523438 89.242188 219.65625 90.585938 C 219.789062 91.929688 219.953125 93.269531 220.152344 94.605469 C 220.351562 95.941406 220.582031 97.269531 220.84375 98.59375 C 221.109375 99.917969 221.40625 101.234375 221.734375 102.546875 C 222.058594 103.855469 222.421875 105.15625 222.8125 106.449219 C 223.203125 107.742188 223.628906 109.023438 224.082031 110.292969 C 224.539062 111.566406 225.023438 112.824219 225.539062 114.070312 C 226.058594 115.320312 226.605469 116.554688 227.179688 117.773438 C 227.757812 118.992188 228.363281 120.199219 229 121.390625 C 229.636719 122.582031 230.304688 123.753906 230.996094 124.914062 C 231.691406 126.070312 232.414062 127.210938 233.164062 128.335938 C 233.914062 129.457031 234.691406 130.5625 235.496094 131.644531 C 236.300781 132.730469 237.128906 133.792969 237.988281 134.835938 C 238.84375 135.882812 239.726562 136.902344 240.632812 137.902344 C 241.539062 138.902344 242.46875 139.882812 243.421875 140.835938 C 244.378906 141.789062 245.355469 142.722656 246.355469 143.628906 C 247.355469 144.535156 248.378906 145.417969 249.421875 146.273438 C 250.464844 147.128906 251.53125 147.960938 252.613281 148.765625 C 253.699219 149.570312 254.804688 150.347656 255.925781 151.097656 C 257.046875 151.847656 258.1875 152.570312 259.347656 153.261719 C 260.503906 153.957031 261.679688 154.621094 262.871094 155.257812 C 264.0625 155.894531 265.265625 156.5 266.488281 157.078125 C 267.707031 157.65625 268.941406 158.203125 270.1875 158.71875 C 271.4375 159.238281 272.695312 159.722656 273.964844 160.175781 C 275.238281 160.632812 276.519531 161.054688 277.8125 161.449219 C 279.105469 161.839844 280.40625 162.199219 281.714844 162.527344 C 283.023438 162.855469 284.339844 163.152344 285.664062 163.414062 C 286.988281 163.679688 288.320312 163.910156 289.65625 164.105469 C 290.992188 164.304688 292.328125 164.46875 293.671875 164.601562 C 295.015625 164.734375 296.363281 164.835938 297.710938 164.902344 C 299.058594 164.96875 300.410156 165 301.761719 165 Z M 338.175781 67.355469 L 296.925781 108.605469 C 293.898438 111.632812 289 111.632812 286 108.605469 L 265.375 87.980469 C 262.347656 84.949219 262.347656 80.050781 265.375 77.054688 C 268.40625 74.058594 273.304688 74.023438 276.300781 77.054688 L 291.449219 92.199219 L 327.21875 56.398438 C 330.25 53.367188 335.148438 53.367188 338.144531 56.398438 C 341.140625 59.425781 341.171875 64.324219 338.144531 67.320312 Z M 338.175781 67.355469 "/></g></g></svg>