<svg xmlns="http://www.w3.org/2000/svg" xmlns:xlink="http://www.w3.org/1999/xlink" width="512" zoomAndPan="magnify" viewBox="0 0 384 383.999986" height="512" preserveAspectRatio="xMidYMid meet" version="1.2"><defs><clipPath id="243f2ebeb7"><path d="M 226.550781 0 L 384 0 L 384 210 L 226.550781 210 Z M 226.550781 0 "/></clipPath></defs><g id="51c697bc56"><path style=" stroke:none;fill-rule:nonzero;fill:#fcc800;fill-opacity:1;" d="M 192 384 C 195.140625 384 198.28125 383.921875 201.421875 383.769531 C 204.558594 383.613281 207.691406 383.382812 210.820312 383.074219 C 213.945312 382.765625 217.0625 382.382812 220.171875 381.921875 C 223.28125 381.460938 226.375 380.921875 229.457031 380.3125 C 232.539062 379.699219 235.605469 379.007812 238.652344 378.246094 C 241.699219 377.484375 244.726562 376.644531 247.734375 375.734375 C 250.742188 374.820312 253.722656 373.835938 256.683594 372.777344 C 259.640625 371.71875 262.570312 370.585938 265.476562 369.386719 C 268.378906 368.183594 271.25 366.910156 274.089844 365.566406 C 276.929688 364.222656 279.738281 362.808594 282.507812 361.328125 C 285.28125 359.847656 288.011719 358.300781 290.707031 356.683594 C 293.402344 355.070312 296.058594 353.386719 298.667969 351.640625 C 301.28125 349.894531 303.851562 348.085938 306.375 346.214844 C 308.898438 344.34375 311.375 342.410156 313.804688 340.417969 C 316.234375 338.425781 318.609375 336.371094 320.9375 334.261719 C 323.265625 332.152344 325.542969 329.988281 327.765625 327.765625 C 329.988281 325.542969 332.152344 323.265625 334.261719 320.9375 C 336.371094 318.609375 338.425781 316.234375 340.417969 313.804688 C 342.410156 311.375 344.34375 308.898438 346.214844 306.375 C 348.085938 303.851562 349.894531 301.28125 351.640625 298.667969 C 353.386719 296.058594 355.070312 293.402344 356.683594 290.707031 C 358.300781 288.011719 359.847656 285.28125 361.328125 282.507812 C 362.808594 279.738281 364.222656 276.929688 365.566406 274.089844 C 366.910156 271.25 368.183594 268.378906 369.386719 265.476562 C 370.585938 262.570312 371.71875 259.640625 372.777344 256.683594 C 373.835938 253.722656 374.820312 250.742188 375.734375 247.734375 C 376.644531 244.726562 377.484375 241.699219 378.246094 238.652344 C 379.007812 235.605469 379.699219 232.539062 380.3125 229.457031 C 380.921875 226.375 381.460938 223.28125 381.921875 220.171875 C 382.382812 217.0625 382.765625 213.945312 383.074219 210.820312 C 383.382812 207.691406 383.613281 204.558594 383.769531 201.421875 C 383.921875 198.28125 384 195.140625 384 192 C 384 188.859375 383.921875 185.71875 383.769531 182.578125 C 383.613281 179.441406 383.382812 176.308594 383.074219 173.179688 C 382.765625 170.054688 382.382812 166.9375 381.921875 163.828125 C 381.460938 160.71875 380.921875 157.625 380.3125 154.542969 C 379.699219 151.460938 379.007812 148.394531 378.246094 145.347656 C 377.484375 142.300781 376.644531 139.273438 375.734375 136.265625 C 374.820312 133.257812 373.835938 130.277344 372.777344 127.316406 C 371.71875 124.359375 370.585938 121.429688 369.386719 118.523438 C 368.183594 115.621094 366.910156 112.75 365.566406 109.910156 C 364.222656 107.070312 362.808594 104.261719 361.328125 101.492188 C 359.847656 98.71875 358.300781 95.988281 356.683594 93.292969 C 355.070312 90.597656 353.386719 87.941406 351.640625 85.332031 C 349.894531 82.71875 348.085938 80.148438 346.214844 77.625 C 344.34375 75.101562 342.410156 72.625 340.417969 70.195312 C 338.425781 67.765625 336.371094 65.390625 334.261719 63.0625 C 332.152344 60.734375 329.988281 58.457031 327.765625 56.234375 C 325.542969 54.011719 323.265625 51.847656 320.9375 49.738281 C 318.609375 47.628906 316.234375 45.574219 313.804688 43.582031 C 311.375 41.589844 308.898438 39.65625 306.375 37.785156 C 303.851562 35.914062 301.28125 34.105469 298.667969 32.359375 C 296.058594 30.613281 293.402344 28.929688 290.707031 27.316406 C 288.011719 25.699219 285.28125 24.152344 282.507812 22.671875 C 279.738281 21.191406 276.929688 19.777344 274.089844 18.433594 C 271.25 17.089844 268.378906 15.816406 265.476562 14.613281 C 262.570312 13.414062 259.640625 12.28125 256.683594 11.222656 C 253.722656 10.164062 250.742188 9.179688 247.734375 8.265625 C 244.726562 7.355469 241.699219 6.515625 238.652344 5.753906 C 235.605469 4.992188 232.539062 4.300781 229.457031 3.6875 C 226.375 3.078125 223.28125 2.539062 220.171875 2.078125 C 217.0625 1.617188 213.945312 1.234375 210.820312 0.925781 C 207.691406 0.617188 204.558594 0.386719 201.421875 0.230469 C 198.28125 0.078125 195.140625 0 192 0 C 188.859375 0 185.71875 0.078125 182.578125 0.230469 C 179.441406 0.386719 176.308594 0.617188 173.179688 0.925781 C 170.054688 1.234375 166.9375 1.617188 163.828125 2.078125 C 160.71875 2.539062 157.625 3.078125 154.542969 3.6875 C 151.460938 4.300781 148.394531 4.992188 145.347656 5.753906 C 142.300781 6.515625 139.273438 7.355469 136.265625 8.265625 C 133.257812 9.179688 130.277344 10.164062 127.316406 11.222656 C 124.359375 12.28125 121.429688 13.414062 118.523438 14.613281 C 115.621094 15.816406 112.75 17.089844 109.910156 18.433594 C 107.070312 19.777344 104.261719 21.191406 101.492188 22.671875 C 98.71875 24.152344 95.988281 25.699219 93.292969 27.316406 C 90.597656 28.929688 87.941406 30.613281 85.332031 32.359375 C 82.71875 34.105469 80.148438 35.914062 77.625 37.785156 C 75.101562 39.65625 72.625 41.589844 70.195312 43.582031 C 67.765625 45.574219 65.390625 47.628906 63.0625 49.738281 C 60.734375 51.847656 58.457031 54.011719 56.234375 56.234375 C 54.011719 58.457031 51.847656 60.734375 49.738281 63.0625 C 47.628906 65.390625 45.574219 67.765625 43.582031 70.195312 C 41.589844 72.625 39.65625 75.101562 37.785156 77.625 C 35.914062 80.148438 34.105469 82.71875 32.359375 85.332031 C 30.613281 87.941406 28.929688 90.597656 27.316406 93.292969 C 25.699219 95.988281 24.152344 98.71875 22.671875 101.492188 C 21.191406 104.261719 19.777344 107.070312 18.433594 109.910156 C 17.089844 112.75 15.816406 115.621094 14.613281 118.523438 C 13.414062 121.429688 12.28125 124.359375 11.222656 127.316406 C 10.164062 130.277344 9.179688 133.257812 8.265625 136.265625 C 7.355469 139.273438 6.515625 142.300781 5.753906 145.347656 C 4.992188 148.394531 4.300781 151.460938 3.6875 154.542969 C 3.078125 157.625 2.539062 160.71875 2.078125 163.828125 C 1.617188 166.9375 1.234375 170.054688 0.925781 173.179688 C 0.617188 176.308594 0.386719 179.441406 0.230469 182.578125 C 0.078125 185.71875 0 188.859375 0 192 C 0 195.140625 0.078125 198.28125 0.230469 201.421875 C 0.386719 204.558594 0.617188 207.691406 0.925781 210.820312 C 1.234375 213.945312 1.617188 217.0625 2.078125 220.171875 C 2.539062 223.28125 3.078125 226.375 3.6875 229.457031 C 4.300781 232.539062 4.992188 235.605469 5.753906 238.652344 C 6.515625 241.699219 7.355469 244.726562 8.265625 247.734375 C 9.179688 250.742188 10.164062 253.722656 11.222656 256.683594 C 12.28125 259.640625 13.414062 262.570312 14.613281 265.476562 C 15.816406 268.378906 17.089844 271.25 18.433594 274.089844 C 19.777344 276.929688 21.191406 279.738281 22.671875 282.507812 C 24.152344 285.28125 25.699219 288.011719 27.316406 290.707031 C 28.929688 293.402344 30.613281 296.058594 32.359375 298.667969 C 34.105469 301.28125 35.914062 303.851562 37.785156 306.375 C 39.65625 308.898438 41.589844 311.375 43.582031 313.804688 C 45.574219 316.234375 47.628906 318.609375 49.738281 320.9375 C 51.847656 323.265625 54.011719 325.542969 56.234375 327.765625 C 58.457031 329.988281 60.734375 332.152344 63.0625 334.261719 C 65.390625 336.371094 67.765625 338.425781 70.195312 340.417969 C 72.625 342.410156 75.101562 344.34375 77.625 346.214844 C 80.148438 348.085938 82.71875 349.894531 85.332031 351.640625 C 87.941406 353.386719 90.597656 355.070312 93.292969 356.683594 C 95.988281 358.300781 98.71875 359.847656 101.492188 361.328125 C 104.261719 362.808594 107.070312 364.222656 109.910156 365.566406 C 112.75 366.910156 115.621094 368.183594 118.523438 369.386719 C 121.429688 370.585938 124.359375 371.71875 127.316406 372.777344 C 130.277344 373.835938 133.257812 374.820312 136.265625 375.734375 C 139.273438 376.644531 142.300781 377.484375 145.347656 378.246094 C 148.394531 379.007812 151.460938 379.699219 154.542969 380.3125 C 157.625 380.921875 160.71875 381.460938 163.828125 381.921875 C 166.9375 382.382812 170.054688 382.765625 173.179688 383.074219 C 176.308594 383.382812 179.441406 383.613281 182.578125 383.769531 C 185.71875 383.921875 188.859375 384 192 384 Z M 192 96 C 201.976562 96 210 104.023438 210 114 L 210 198 C 210 207.976562 201.976562 216 192 216 C 182.023438 216 174 207.976562 174 198 L 174 114 C 174 104.023438 182.023438 96 192 96 Z M 168 264 C 168 263.214844 168.039062 262.429688 168.117188 261.648438 C 168.191406 260.867188 168.308594 260.089844 168.460938 259.316406 C 168.613281 258.546875 168.804688 257.785156 169.035156 257.03125 C 169.261719 256.28125 169.527344 255.542969 169.828125 254.816406 C 170.128906 254.089844 170.464844 253.378906 170.832031 252.6875 C 171.203125 251.992188 171.609375 251.320312 172.042969 250.667969 C 172.480469 250.011719 172.949219 249.382812 173.449219 248.773438 C 173.945312 248.167969 174.472656 247.585938 175.03125 247.03125 C 175.585938 246.472656 176.167969 245.945312 176.773438 245.449219 C 177.382812 244.949219 178.011719 244.480469 178.667969 244.042969 C 179.320312 243.609375 179.992188 243.203125 180.6875 242.832031 C 181.378906 242.464844 182.089844 242.128906 182.816406 241.828125 C 183.542969 241.527344 184.28125 241.261719 185.03125 241.035156 C 185.785156 240.804688 186.546875 240.613281 187.316406 240.460938 C 188.089844 240.308594 188.867188 240.191406 189.648438 240.117188 C 190.429688 240.039062 191.214844 240 192 240 C 192.785156 240 193.570312 240.039062 194.351562 240.117188 C 195.132812 240.191406 195.910156 240.308594 196.683594 240.460938 C 197.453125 240.613281 198.214844 240.804688 198.96875 241.035156 C 199.71875 241.261719 200.457031 241.527344 201.183594 241.828125 C 201.910156 242.128906 202.621094 242.464844 203.3125 242.832031 C 204.007812 243.203125 204.679688 243.609375 205.332031 244.042969 C 205.988281 244.480469 206.617188 244.949219 207.226562 245.449219 C 207.832031 245.945312 208.414062 246.472656 208.96875 247.03125 C 209.527344 247.585938 210.054688 248.167969 210.550781 248.773438 C 211.050781 249.382812 211.519531 250.011719 211.957031 250.667969 C 212.390625 251.320312 212.796875 251.992188 213.167969 252.6875 C 213.535156 253.378906 213.871094 254.089844 214.171875 254.816406 C 214.472656 255.542969 214.738281 256.28125 214.964844 257.03125 C 215.195312 257.785156 215.386719 258.546875 215.539062 259.316406 C 215.691406 260.089844 215.808594 260.867188 215.882812 261.648438 C 215.960938 262.429688 216 263.214844 216 264 C 216 264.785156 215.960938 265.570312 215.882812 266.351562 C 215.808594 267.132812 215.691406 267.910156 215.539062 268.683594 C 215.386719 269.453125 215.195312 270.214844 214.964844 270.964844 C 214.738281 271.71875 214.472656 272.457031 214.171875 273.183594 C 213.871094 273.910156 213.535156 274.621094 213.167969 275.3125 C 212.796875 276.007812 212.390625 276.679688 211.957031 277.332031 C 211.519531 277.988281 211.050781 278.617188 210.550781 279.226562 C 210.054688 279.832031 209.527344 280.414062 208.96875 280.96875 C 208.414062 281.527344 207.832031 282.054688 207.226562 282.550781 C 206.617188 283.050781 205.988281 283.519531 205.332031 283.957031 C 204.679688 284.390625 204.007812 284.796875 203.3125 285.167969 C 202.621094 285.535156 201.910156 285.871094 201.183594 286.171875 C 200.457031 286.472656 199.71875 286.738281 198.96875 286.964844 C 198.214844 287.195312 197.453125 287.386719 196.683594 287.539062 C 195.910156 287.691406 195.132812 287.808594 194.351562 287.882812 C 193.570312 287.960938 192.785156 288 192 288 C 191.214844 288 190.429688 287.960938 189.648438 287.882812 C 188.867188 287.808594 188.089844 287.691406 187.316406 287.539062 C 186.546875 287.386719 185.785156 287.195312 185.03125 286.964844 C 184.28125 286.738281 183.542969 286.472656 182.816406 286.171875 C 182.089844 285.871094 181.378906 285.535156 180.6875 285.167969 C 179.992188 284.796875 179.320312 284.390625 178.667969 283.957031 C 178.011719 283.519531 177.382812 283.050781 176.773438 282.550781 C 176.167969 282.054688 175.585938 281.527344 175.03125 280.96875 C 174.472656 280.414062 173.945312 279.832031 173.449219 279.226562 C 172.949219 278.617188 172.480469 277.988281 172.042969 277.332031 C 171.609375 276.679688 171.203125 276.007812 170.832031 275.3125 C 170.464844 274.621094 170.128906 273.910156 169.828125 273.183594 C 169.527344 272.457031 169.261719 271.71875 169.035156 270.964844 C 168.804688 270.214844 168.613281 269.453125 168.460938 268.683594 C 168.308594 267.910156 168.191406 267.132812 168.117188 266.351562 C 168.039062 265.570312 168 264.785156 168 264 Z M 168 264 "/><g clip-rule="nonzero" clip-path="url(#243f2ebeb7)"><path style=" stroke:none;fill-rule:nonzero;fill:#2559b1;fill-opacity:1;" d="M 239.675781 0.00390625 C 232.417969 0.00390625 226.550781 5.867188 226.550781 13.128906 C 226.550781 20.386719 232.417969 26.253906 239.675781 26.253906 L 239.675781 30.765625 C 239.675781 48.15625 246.609375 64.847656 258.914062 77.152344 L 286.722656 105 L 258.914062 132.847656 C 246.609375 145.152344 239.675781 161.84375 239.675781 179.234375 L 239.675781 183.746094 C 232.417969 183.746094 226.550781 189.613281 226.550781 196.871094 C 226.550781 204.132812 232.417969 209.996094 239.675781 209.996094 L 370.925781 209.996094 C 378.1875 209.996094 384.050781 204.132812 384.050781 196.871094 C 384.050781 189.613281 378.1875 183.746094 370.925781 183.746094 L 370.925781 179.234375 C 370.925781 161.84375 363.996094 145.152344 351.691406 132.847656 L 323.882812 105 L 351.730469 77.152344 C 364.035156 64.847656 370.96875 48.15625 370.96875 30.765625 L 370.96875 26.253906 C 378.226562 26.253906 384.09375 20.386719 384.09375 13.128906 C 384.09375 5.867188 378.226562 0.00390625 370.96875 0.00390625 Z M 265.925781 30.765625 L 265.925781 26.253906 L 344.675781 26.253906 L 344.675781 30.765625 C 344.675781 38.558594 342.378906 46.105469 338.113281 52.5 L 272.488281 52.5 C 268.265625 46.105469 265.925781 38.558594 265.925781 30.765625 Z M 272.488281 157.496094 C 273.925781 155.324219 275.605469 153.273438 277.453125 151.386719 L 305.300781 123.578125 L 333.152344 151.429688 C 335.039062 153.316406 336.679688 155.367188 338.113281 157.539062 Z M 272.488281 157.496094 "/></g></g></svg>