<svg xmlns="http://www.w3.org/2000/svg" xmlns:xlink="http://www.w3.org/1999/xlink" width="512" zoomAndPan="magnify" viewBox="0 0 384 383.999986" height="512" preserveAspectRatio="xMidYMid meet" version="1.2"><defs><clipPath id="b0122973ef"><path d="M 226.550781 0 L 384 0 L 384 210 L 226.550781 210 Z M 226.550781 0 "/></clipPath></defs><g id="5f6ebecfab"><path style=" stroke:none;fill-rule:nonzero;fill:#e7000b;fill-opacity:1;" d="M 192 24 C 202.648438 24 212.476562 29.625 217.875 38.851562 L 379.875 314.851562 C 385.351562 324.148438 385.351562 335.625 380.023438 344.925781 C 374.699219 354.226562 364.726562 360 354 360 L 30 360 C 19.273438 360 9.300781 354.226562 3.976562 344.925781 C -1.351562 335.625 -1.273438 324.074219 4.125 314.851562 L 166.125 38.851562 C 171.523438 29.625 181.351562 24 192 24 Z M 192 120 C 182.023438 120 174 128.023438 174 138 L 174 222 C 174 231.976562 182.023438 240 192 240 C 201.976562 240 210 231.976562 210 222 L 210 138 C 210 128.023438 201.976562 120 192 120 Z M 216 288 C 216 287.214844 215.960938 286.429688 215.882812 285.648438 C 215.808594 284.867188 215.691406 284.089844 215.539062 283.316406 C 215.386719 282.546875 215.195312 281.785156 214.964844 281.03125 C 214.738281 280.28125 214.472656 279.542969 214.171875 278.816406 C 213.871094 278.089844 213.535156 277.378906 213.167969 276.6875 C 212.796875 275.992188 212.390625 275.320312 211.957031 274.667969 C 211.519531 274.011719 211.050781 273.382812 210.550781 272.773438 C 210.054688 272.167969 209.527344 271.585938 208.96875 271.03125 C 208.414062 270.472656 207.832031 269.945312 207.226562 269.449219 C 206.617188 268.949219 205.988281 268.480469 205.332031 268.042969 C 204.679688 267.609375 204.007812 267.203125 203.3125 266.832031 C 202.621094 266.464844 201.910156 266.128906 201.183594 265.828125 C 200.457031 265.527344 199.71875 265.261719 198.96875 265.035156 C 198.214844 264.804688 197.453125 264.613281 196.683594 264.460938 C 195.910156 264.308594 195.132812 264.191406 194.351562 264.117188 C 193.570312 264.039062 192.785156 264 192 264 C 191.214844 264 190.429688 264.039062 189.648438 264.117188 C 188.867188 264.191406 188.089844 264.308594 187.316406 264.460938 C 186.546875 264.613281 185.785156 264.804688 185.03125 265.035156 C 184.28125 265.261719 183.542969 265.527344 182.816406 265.828125 C 182.089844 266.128906 181.378906 266.464844 180.6875 266.832031 C 179.992188 267.203125 179.320312 267.609375 178.667969 268.042969 C 178.011719 268.480469 177.382812 268.949219 176.773438 269.449219 C 176.167969 269.945312 175.585938 270.472656 175.03125 271.03125 C 174.472656 271.585938 173.945312 272.167969 173.449219 272.773438 C 172.949219 273.382812 172.480469 274.011719 172.042969 274.667969 C 171.609375 275.320312 171.203125 275.992188 170.832031 276.6875 C 170.464844 277.378906 170.128906 278.089844 169.828125 278.816406 C 169.527344 279.542969 169.261719 280.28125 169.035156 281.03125 C 168.804688 281.785156 168.613281 282.546875 168.460938 283.316406 C 168.308594 284.089844 168.191406 284.867188 168.117188 285.648438 C 168.039062 286.429688 168 287.214844 168 288 C 168 288.785156 168.039062 289.570312 168.117188 290.351562 C 168.191406 291.132812 168.308594 291.910156 168.460938 292.683594 C 168.613281 293.453125 168.804688 294.214844 169.035156 294.96875 C 169.261719 295.71875 169.527344 296.457031 169.828125 297.183594 C 170.128906 297.910156 170.464844 298.621094 170.832031 299.3125 C 171.203125 300.007812 171.609375 300.679688 172.042969 301.332031 C 172.480469 301.988281 172.949219 302.617188 173.449219 303.226562 C 173.945312 303.832031 174.472656 304.414062 175.03125 304.96875 C 175.585938 305.527344 176.167969 306.054688 176.773438 306.550781 C 177.382812 307.050781 178.011719 307.519531 178.667969 307.957031 C 179.320312 308.390625 179.992188 308.796875 180.6875 309.167969 C 181.378906 309.535156 182.089844 309.871094 182.816406 310.171875 C 183.542969 310.472656 184.28125 310.738281 185.03125 310.964844 C 185.785156 311.195312 186.546875 311.386719 187.316406 311.539062 C 188.089844 311.691406 188.867188 311.808594 189.648438 311.882812 C 190.429688 311.960938 191.214844 312 192 312 C 192.785156 312 193.570312 311.960938 194.351562 311.882812 C 195.132812 311.808594 195.910156 311.691406 196.683594 311.539062 C 197.453125 311.386719 198.214844 311.195312 198.96875 310.964844 C 199.71875 310.738281 200.457031 310.472656 201.183594 310.171875 C 201.910156 309.871094 202.621094 309.535156 203.3125 309.167969 C 204.007812 308.796875 204.679688 308.390625 205.332031 307.957031 C 205.988281 307.519531 206.617188 307.050781 207.226562 306.550781 C 207.832031 306.054688 208.414062 305.527344 208.96875 304.96875 C 209.527344 304.414062 210.054688 303.832031 210.550781 303.226562 C 211.050781 302.617188 211.519531 301.988281 211.957031 301.332031 C 212.390625 300.679688 212.796875 300.007812 213.167969 299.3125 C 213.535156 298.621094 213.871094 297.910156 214.171875 297.183594 C 214.472656 296.457031 214.738281 295.71875 214.964844 294.96875 C 215.195312 294.214844 215.386719 293.453125 215.539062 292.683594 C 215.691406 291.910156 215.808594 291.132812 215.882812 290.351562 C 215.960938 289.570312 216 288.785156 216 288 Z M 216 288 "/><g clip-rule="nonzero" clip-path="url(#b0122973ef)"><path style=" stroke:none;fill-rule:nonzero;fill:#2559b1;fill-opacity:1;" d="M 239.675781 0.00390625 C 232.417969 0.00390625 226.550781 5.867188 226.550781 13.128906 C 226.550781 20.386719 232.417969 26.253906 239.675781 26.253906 L 239.675781 30.765625 C 239.675781 48.15625 246.609375 64.847656 258.914062 77.152344 L 286.722656 105 L 258.914062 132.847656 C 246.609375 145.152344 239.675781 161.84375 239.675781 179.234375 L 239.675781 183.746094 C 232.417969 183.746094 226.550781 189.613281 226.550781 196.871094 C 226.550781 204.132812 232.417969 209.996094 239.675781 209.996094 L 370.925781 209.996094 C 378.1875 209.996094 384.050781 204.132812 384.050781 196.871094 C 384.050781 189.613281 378.1875 183.746094 370.925781 183.746094 L 370.925781 179.234375 C 370.925781 161.84375 363.996094 145.152344 351.691406 132.847656 L 323.882812 105 L 351.730469 77.152344 C 364.035156 64.847656 370.96875 48.15625 370.96875 30.765625 L 370.96875 26.253906 C 378.226562 26.253906 384.09375 20.386719 384.09375 13.128906 C 384.09375 5.867188 378.226562 0.00390625 370.96875 0.00390625 Z M 265.925781 30.765625 L 265.925781 26.253906 L 344.675781 26.253906 L 344.675781 30.765625 C 344.675781 38.558594 342.378906 46.105469 338.113281 52.5 L 272.488281 52.5 C 268.265625 46.105469 265.925781 38.558594 265.925781 30.765625 Z M 272.488281 157.496094 C 273.925781 155.324219 275.605469 153.273438 277.453125 151.386719 L 305.300781 123.578125 L 333.152344 151.429688 C 335.039062 153.316406 336.679688 155.367188 338.113281 157.539062 Z M 272.488281 157.496094 "/></g></g></svg>